<svg xmlns="http://www.w3.org/2000/svg" width="20" height="20" fill="none" viewBox="0 0 20 20"><g clip-path="url(#clip0_2823_5190)"><path stroke="#01060F" stroke-linecap="round" stroke-linejoin="round" stroke-width="1.5" d="M7.5 9.16667C7.5 9.82971 7.76339 10.4656 8.23223 10.9344C8.70107 11.4033 9.33696 11.6667 10 11.6667C10.663 11.6667 11.2989 11.4033 11.7678 10.9344C12.2366 10.4656 12.5 9.82971 12.5 9.16667C12.5 8.50363 12.2366 7.86775 11.7678 7.3989C11.2989 6.93006 10.663 6.66667 10 6.66667C9.33696 6.66667 8.70107 6.93006 8.23223 7.3989C7.76339 7.86775 7.5 8.50363 7.5 9.16667Z"/><path stroke="#01060F" stroke-linecap="round" stroke-linejoin="round" stroke-width="1.5" d="M14.7142 13.8806L11.1783 17.4164C10.8658 17.7286 10.4422 17.904 10.0004 17.904C9.55869 17.904 9.13503 17.7286 8.82251 17.4164L5.28585 13.8806C4.35353 12.9482 3.71863 11.7603 3.46142 10.4671C3.20421 9.17394 3.33625 7.83352 3.84085 6.61536C4.34544 5.39721 5.19993 4.35604 6.29625 3.62351C7.39257 2.89098 8.68149 2.5 10 2.5C11.3185 2.5 12.6075 2.89098 13.7038 3.62351C14.8001 4.35604 15.6546 5.39721 16.1592 6.61536C16.6638 7.83352 16.7958 9.17394 16.5386 10.4671C16.2814 11.7603 15.6465 12.9482 14.7142 13.8806Z"/></g><defs><clipPath id="clip0_2823_5190"><rect width="20" height="20" fill="#fff"/></clipPath></defs></svg>