<svg width="24" height="24" viewBox="0 0 24 24" fill="none" xmlns="http://www.w3.org/2000/svg">
<path d="M10.268 21C10.4435 21.304 10.696 21.5565 11 21.732C11.3041 21.9075 11.6489 21.9999 12 21.9999C12.3511 21.9999 12.6959 21.9075 13 21.732C13.304 21.5565 13.5565 21.304 13.732 21" stroke="white" stroke-width="1.5" stroke-linecap="round" stroke-linejoin="round"/>
<path d="M11.68 2.00879C10.1464 2.0907 8.70253 2.7576 7.64585 3.87213C6.58918 4.98666 6.00012 6.46397 6 7.99979C6 12.4988 4.589 13.9558 3.262 15.3258C3.13137 15.469 3.04516 15.647 3.01386 15.8383C2.98256 16.0296 3.00752 16.2258 3.08571 16.4032C3.1639 16.5805 3.29194 16.7313 3.45426 16.8373C3.61658 16.9432 3.80618 16.9996 4 16.9998H20C20.1938 16.9999 20.3834 16.9436 20.5459 16.8379C20.7083 16.7322 20.8365 16.5815 20.9149 16.4043C20.9933 16.2271 21.0185 16.0309 20.9874 15.8396C20.9564 15.6483 20.8704 15.4701 20.74 15.3268C19.916 14.4768 19.062 13.5958 18.53 11.9788" stroke="white" stroke-width="1.5" stroke-linecap="round" stroke-linejoin="round"/>
<path d="M18 8C19.6569 8 21 6.65685 21 5C21 3.34315 19.6569 2 18 2C16.3431 2 15 3.34315 15 5C15 6.65685 16.3431 8 18 8Z" fill="#EAB308" stroke="white" stroke-width="0.75" stroke-linecap="round" stroke-linejoin="round"/>
</svg>
