<svg width="40" height="40" viewBox="0 0 40 40" fill="none" xmlns="http://www.w3.org/2000/svg">
<path d="M17.1667 35H8.33333C7.44928 35 6.60143 34.6488 5.97631 34.0237C5.35119 33.3986 5 32.5507 5 31.6667V8.33333C5 7.44928 5.35119 6.60143 5.97631 5.97631C6.60143 5.35119 7.44928 5 8.33333 5H31.6667C32.5507 5 33.3986 5.35119 34.0237 5.97631C34.6488 6.60143 35 7.44928 35 8.33333V25L29.8333 19.8333C29.2061 19.2186 28.3617 18.8763 27.4835 18.8806C26.6054 18.885 25.7644 19.2358 25.1433 19.8567L10 35" stroke="#A2A8AF" stroke-width="3" stroke-linecap="round" stroke-linejoin="round"/>
<path d="M23.3333 32.5L28.3333 27.5L33.3333 32.5" stroke="#A2A8AF" stroke-width="3" stroke-linecap="round" stroke-linejoin="round"/>
<path d="M28.3333 36.6667V27.5" stroke="#A2A8AF" stroke-width="3" stroke-linecap="round" stroke-linejoin="round"/>
<path d="M15 18.3333C16.841 18.3333 18.3333 16.8409 18.3333 15C18.3333 13.159 16.841 11.6666 15 11.6666C13.1591 11.6666 11.6667 13.159 11.6667 15C11.6667 16.8409 13.1591 18.3333 15 18.3333Z" stroke="#A2A8AF" stroke-width="3" stroke-linecap="round" stroke-linejoin="round"/>
</svg>
